<svg xmlns="http://www.w3.org/2000/svg" xmlns:xlink="http://www.w3.org/1999/xlink" width="500" zoomAndPan="magnify" viewBox="0 0 375 374.999991" height="500" preserveAspectRatio="xMidYMid meet" version="1.0"><defs><clipPath id="3765edfc49"><path d="M 53.808594 99.132812 L 100.09375 99.132812 L 100.09375 145.417969 L 53.808594 145.417969 Z M 53.808594 99.132812 " clip-rule="nonzero"/></clipPath><clipPath id="e1db985652"><path d="M 76.953125 99.132812 C 64.171875 99.132812 53.808594 109.492188 53.808594 122.273438 C 53.808594 135.054688 64.171875 145.417969 76.953125 145.417969 C 89.734375 145.417969 100.09375 135.054688 100.09375 122.273438 C 100.09375 109.492188 89.734375 99.132812 76.953125 99.132812 Z M 76.953125 99.132812 " clip-rule="nonzero"/></clipPath><clipPath id="e290ab1357"><path d="M 53.808594 99.132812 L 100.085938 99.132812 L 100.085938 145.410156 L 53.808594 145.410156 Z M 53.808594 99.132812 " clip-rule="nonzero"/></clipPath><clipPath id="8cc89555d7"><path d="M 76.949219 99.132812 C 64.167969 99.132812 53.808594 109.492188 53.808594 122.269531 C 53.808594 135.050781 64.167969 145.410156 76.949219 145.410156 C 89.726562 145.410156 100.085938 135.050781 100.085938 122.269531 C 100.085938 109.492188 89.726562 99.132812 76.949219 99.132812 Z M 76.949219 99.132812 " clip-rule="nonzero"/></clipPath><clipPath id="4f89654d6a"><path d="M 39.113281 8.9375 L 85.398438 8.9375 L 85.398438 55.222656 L 39.113281 55.222656 Z M 39.113281 8.9375 " clip-rule="nonzero"/></clipPath><clipPath id="b3e7b19b54"><path d="M 62.257812 8.9375 C 49.476562 8.9375 39.113281 19.296875 39.113281 32.078125 C 39.113281 44.859375 49.476562 55.222656 62.257812 55.222656 C 75.039062 55.222656 85.398438 44.859375 85.398438 32.078125 C 85.398438 19.296875 75.039062 8.9375 62.257812 8.9375 Z M 62.257812 8.9375 " clip-rule="nonzero"/></clipPath><clipPath id="78e672dc99"><path d="M 39.113281 8.9375 L 85.390625 8.9375 L 85.390625 55.214844 L 39.113281 55.214844 Z M 39.113281 8.9375 " clip-rule="nonzero"/></clipPath><clipPath id="941dd99253"><path d="M 62.253906 8.9375 C 49.472656 8.9375 39.113281 19.296875 39.113281 32.074219 C 39.113281 44.855469 49.472656 55.214844 62.253906 55.214844 C 75.03125 55.214844 85.390625 44.855469 85.390625 32.074219 C 85.390625 19.296875 75.03125 8.9375 62.253906 8.9375 Z M 62.253906 8.9375 " clip-rule="nonzero"/></clipPath><clipPath id="8fbc990377"><path d="M 115.527344 61.164062 L 161.8125 61.164062 L 161.8125 107.449219 L 115.527344 107.449219 Z M 115.527344 61.164062 " clip-rule="nonzero"/></clipPath><clipPath id="8cc5cc3041"><path d="M 138.671875 61.164062 C 125.890625 61.164062 115.527344 71.523438 115.527344 84.304688 C 115.527344 97.085938 125.890625 107.449219 138.671875 107.449219 C 151.453125 107.449219 161.8125 97.085938 161.8125 84.304688 C 161.8125 71.523438 151.453125 61.164062 138.671875 61.164062 Z M 138.671875 61.164062 " clip-rule="nonzero"/></clipPath><clipPath id="d0915c1a7d"><path d="M 115.527344 61.164062 L 161.804688 61.164062 L 161.804688 107.441406 L 115.527344 107.441406 Z M 115.527344 61.164062 " clip-rule="nonzero"/></clipPath><clipPath id="567d25c3f2"><path d="M 138.667969 61.164062 C 125.886719 61.164062 115.527344 71.523438 115.527344 84.300781 C 115.527344 97.082031 125.886719 107.441406 138.667969 107.441406 C 151.445312 107.441406 161.804688 97.082031 161.804688 84.300781 C 161.804688 71.523438 151.445312 61.164062 138.667969 61.164062 Z M 138.667969 61.164062 " clip-rule="nonzero"/></clipPath><clipPath id="daa0e5d328"><path d="M 137.148438 0 L 183.433594 0 L 183.433594 39.007812 L 137.148438 39.007812 Z M 137.148438 0 " clip-rule="nonzero"/></clipPath><clipPath id="23cab258a4"><path d="M 160.292969 -7.273438 C 147.511719 -7.273438 137.148438 3.085938 137.148438 15.867188 C 137.148438 28.648438 147.511719 39.007812 160.292969 39.007812 C 173.074219 39.007812 183.433594 28.648438 183.433594 15.867188 C 183.433594 3.085938 173.074219 -7.273438 160.292969 -7.273438 Z M 160.292969 -7.273438 " clip-rule="nonzero"/></clipPath><clipPath id="d200c41e96"><path d="M 137.148438 0 L 183.425781 0 L 183.425781 39.003906 L 137.148438 39.003906 Z M 137.148438 0 " clip-rule="nonzero"/></clipPath><clipPath id="b1e3427650"><path d="M 160.289062 -7.273438 C 147.507812 -7.273438 137.148438 3.085938 137.148438 15.863281 C 137.148438 28.644531 147.507812 39.003906 160.289062 39.003906 C 173.066406 39.003906 183.425781 28.644531 183.425781 15.863281 C 183.425781 3.085938 173.066406 -7.273438 160.289062 -7.273438 Z M 160.289062 -7.273438 " clip-rule="nonzero"/></clipPath><clipPath id="93d8d0bb01"><path d="M 206.355469 24.214844 L 252.640625 24.214844 L 252.640625 70.5 L 206.355469 70.5 Z M 206.355469 24.214844 " clip-rule="nonzero"/></clipPath><clipPath id="9c810ccc00"><path d="M 229.496094 24.214844 C 216.71875 24.214844 206.355469 34.574219 206.355469 47.355469 C 206.355469 60.136719 216.71875 70.5 229.496094 70.5 C 242.277344 70.5 252.640625 60.136719 252.640625 47.355469 C 252.640625 34.574219 242.277344 24.214844 229.496094 24.214844 Z M 229.496094 24.214844 " clip-rule="nonzero"/></clipPath><clipPath id="055dde8808"><path d="M 206.355469 24.214844 L 252.632812 24.214844 L 252.632812 70.492188 L 206.355469 70.492188 Z M 206.355469 24.214844 " clip-rule="nonzero"/></clipPath><clipPath id="c72e47761f"><path d="M 229.496094 24.214844 C 216.714844 24.214844 206.355469 34.574219 206.355469 47.351562 C 206.355469 60.132812 216.714844 70.492188 229.496094 70.492188 C 242.273438 70.492188 252.632812 60.132812 252.632812 47.351562 C 252.632812 34.574219 242.273438 24.214844 229.496094 24.214844 Z M 229.496094 24.214844 " clip-rule="nonzero"/></clipPath><clipPath id="edd9e569fa"><path d="M 277.582031 167.523438 L 323.867188 167.523438 L 323.867188 213.808594 L 277.582031 213.808594 Z M 277.582031 167.523438 " clip-rule="nonzero"/></clipPath><clipPath id="3a5fb8c329"><path d="M 300.722656 167.523438 C 287.941406 167.523438 277.582031 177.882812 277.582031 190.664062 C 277.582031 203.445312 287.941406 213.808594 300.722656 213.808594 C 313.503906 213.808594 323.867188 203.445312 323.867188 190.664062 C 323.867188 177.882812 313.503906 167.523438 300.722656 167.523438 Z M 300.722656 167.523438 " clip-rule="nonzero"/></clipPath><clipPath id="4d2b31edc6"><path d="M 277.582031 167.523438 L 323.859375 167.523438 L 323.859375 213.800781 L 277.582031 213.800781 Z M 277.582031 167.523438 " clip-rule="nonzero"/></clipPath><clipPath id="47d70bd537"><path d="M 300.71875 167.523438 C 287.941406 167.523438 277.582031 177.882812 277.582031 190.660156 C 277.582031 203.441406 287.941406 213.800781 300.71875 213.800781 C 313.5 213.800781 323.859375 203.441406 323.859375 190.660156 C 323.859375 177.882812 313.5 167.523438 300.71875 167.523438 Z M 300.71875 167.523438 " clip-rule="nonzero"/></clipPath><clipPath id="21dff918da"><path d="M 211.550781 114.144531 L 257.835938 114.144531 L 257.835938 160.429688 L 211.550781 160.429688 Z M 211.550781 114.144531 " clip-rule="nonzero"/></clipPath><clipPath id="5e48c4b380"><path d="M 234.695312 114.144531 C 221.914062 114.144531 211.550781 124.507812 211.550781 137.289062 C 211.550781 150.070312 221.914062 160.429688 234.695312 160.429688 C 247.476562 160.429688 257.835938 150.070312 257.835938 137.289062 C 257.835938 124.507812 247.476562 114.144531 234.695312 114.144531 Z M 234.695312 114.144531 " clip-rule="nonzero"/></clipPath><clipPath id="cac94cebf8"><path d="M 211.550781 114.144531 L 257.828125 114.144531 L 257.828125 160.421875 L 211.550781 160.421875 Z M 211.550781 114.144531 " clip-rule="nonzero"/></clipPath><clipPath id="71ba22f691"><path d="M 234.691406 114.144531 C 221.914062 114.144531 211.550781 124.503906 211.550781 137.285156 C 211.550781 150.0625 221.914062 160.421875 234.691406 160.421875 C 247.46875 160.421875 257.828125 150.0625 257.828125 137.285156 C 257.828125 124.503906 247.46875 114.144531 234.691406 114.144531 Z M 234.691406 114.144531 " clip-rule="nonzero"/></clipPath><clipPath id="892a9fea57"><path d="M 134.148438 136.539062 L 180.433594 136.539062 L 180.433594 182.820312 L 134.148438 182.820312 Z M 134.148438 136.539062 " clip-rule="nonzero"/></clipPath><clipPath id="c43ba9c1c0"><path d="M 157.292969 136.539062 C 144.511719 136.539062 134.148438 146.898438 134.148438 159.679688 C 134.148438 172.460938 144.511719 182.820312 157.292969 182.820312 C 170.074219 182.820312 180.433594 172.460938 180.433594 159.679688 C 180.433594 146.898438 170.074219 136.539062 157.292969 136.539062 Z M 157.292969 136.539062 " clip-rule="nonzero"/></clipPath><clipPath id="acbf7bc410"><path d="M 134.148438 136.539062 L 180.425781 136.539062 L 180.425781 182.816406 L 134.148438 182.816406 Z M 134.148438 136.539062 " clip-rule="nonzero"/></clipPath><clipPath id="60f718b637"><path d="M 157.289062 136.539062 C 144.507812 136.539062 134.148438 146.898438 134.148438 159.675781 C 134.148438 172.457031 144.507812 182.816406 157.289062 182.816406 C 170.066406 182.816406 180.425781 172.457031 180.425781 159.675781 C 180.425781 146.898438 170.066406 136.539062 157.289062 136.539062 Z M 157.289062 136.539062 " clip-rule="nonzero"/></clipPath><clipPath id="d014100c8f"><path d="M 207.105469 212.570312 L 253.390625 212.570312 L 253.390625 258.851562 L 207.105469 258.851562 Z M 207.105469 212.570312 " clip-rule="nonzero"/></clipPath><clipPath id="fb0ec91a1c"><path d="M 230.246094 212.570312 C 217.46875 212.570312 207.105469 222.929688 207.105469 235.710938 C 207.105469 248.492188 217.46875 258.851562 230.246094 258.851562 C 243.027344 258.851562 253.390625 248.492188 253.390625 235.710938 C 253.390625 222.929688 243.027344 212.570312 230.246094 212.570312 Z M 230.246094 212.570312 " clip-rule="nonzero"/></clipPath><clipPath id="a35c7c21cb"><path d="M 207.105469 212.570312 L 253.382812 212.570312 L 253.382812 258.847656 L 207.105469 258.847656 Z M 207.105469 212.570312 " clip-rule="nonzero"/></clipPath><clipPath id="0782c9f6b2"><path d="M 230.246094 212.570312 C 217.464844 212.570312 207.105469 222.929688 207.105469 235.707031 C 207.105469 248.488281 217.464844 258.847656 230.246094 258.847656 C 243.023438 258.847656 253.382812 248.488281 253.382812 235.707031 C 253.382812 222.929688 243.023438 212.570312 230.246094 212.570312 Z M 230.246094 212.570312 " clip-rule="nonzero"/></clipPath><clipPath id="5501f4feaa"><path d="M 290.78125 241.476562 L 337.066406 241.476562 L 337.066406 287.761719 L 290.78125 287.761719 Z M 290.78125 241.476562 " clip-rule="nonzero"/></clipPath><clipPath id="46ae713fd8"><path d="M 313.925781 241.476562 C 301.144531 241.476562 290.78125 251.835938 290.78125 264.617188 C 290.78125 277.398438 301.144531 287.761719 313.925781 287.761719 C 326.707031 287.761719 337.066406 277.398438 337.066406 264.617188 C 337.066406 251.835938 326.707031 241.476562 313.925781 241.476562 Z M 313.925781 241.476562 " clip-rule="nonzero"/></clipPath><clipPath id="294c1ea33f"><path d="M 290.78125 241.476562 L 337.058594 241.476562 L 337.058594 287.753906 L 290.78125 287.753906 Z M 290.78125 241.476562 " clip-rule="nonzero"/></clipPath><clipPath id="4c9add0624"><path d="M 313.921875 241.476562 C 301.140625 241.476562 290.78125 251.835938 290.78125 264.617188 C 290.78125 277.394531 301.140625 287.753906 313.921875 287.753906 C 326.699219 287.753906 337.058594 277.394531 337.058594 264.617188 C 337.058594 251.835938 326.699219 241.476562 313.921875 241.476562 Z M 313.921875 241.476562 " clip-rule="nonzero"/></clipPath><clipPath id="8340abf53f"><path d="M 101.46875 201.136719 L 147.617188 201.136719 L 147.617188 247.285156 L 101.46875 247.285156 Z M 101.46875 201.136719 " clip-rule="nonzero"/></clipPath><clipPath id="ea46688ff4"><path d="M 124.542969 201.136719 C 111.800781 201.136719 101.46875 211.464844 101.46875 224.210938 C 101.46875 236.953125 111.800781 247.285156 124.542969 247.285156 C 137.285156 247.285156 147.617188 236.953125 147.617188 224.210938 C 147.617188 211.464844 137.285156 201.136719 124.542969 201.136719 Z M 124.542969 201.136719 " clip-rule="nonzero"/></clipPath><clipPath id="0fdef11553"><path d="M 204.757812 272.351562 L 251.042969 272.351562 L 251.042969 318.636719 L 204.757812 318.636719 Z M 204.757812 272.351562 " clip-rule="nonzero"/></clipPath><clipPath id="e7b9bf806c"><path d="M 227.898438 272.351562 C 215.117188 272.351562 204.757812 282.714844 204.757812 295.496094 C 204.757812 308.277344 215.117188 318.636719 227.898438 318.636719 C 240.679688 318.636719 251.042969 308.277344 251.042969 295.496094 C 251.042969 282.714844 240.679688 272.351562 227.898438 272.351562 Z M 227.898438 272.351562 " clip-rule="nonzero"/></clipPath><clipPath id="ec9c66f21b"><path d="M 204.757812 272.351562 L 251.035156 272.351562 L 251.035156 318.628906 L 204.757812 318.628906 Z M 204.757812 272.351562 " clip-rule="nonzero"/></clipPath><clipPath id="3427468a1e"><path d="M 227.894531 272.351562 C 215.117188 272.351562 204.757812 282.710938 204.757812 295.492188 C 204.757812 308.269531 215.117188 318.628906 227.894531 318.628906 C 240.675781 318.628906 251.035156 308.269531 251.035156 295.492188 C 251.035156 282.710938 240.675781 272.351562 227.894531 272.351562 Z M 227.894531 272.351562 " clip-rule="nonzero"/></clipPath><clipPath id="a77036d786"><path d="M 276.816406 314.359375 L 323.097656 314.359375 L 323.097656 360.640625 L 276.816406 360.640625 Z M 276.816406 314.359375 " clip-rule="nonzero"/></clipPath><clipPath id="a06c05d03b"><path d="M 299.957031 314.359375 C 287.175781 314.359375 276.816406 324.71875 276.816406 337.5 C 276.816406 350.28125 287.175781 360.640625 299.957031 360.640625 C 312.738281 360.640625 323.097656 350.28125 323.097656 337.5 C 323.097656 324.71875 312.738281 314.359375 299.957031 314.359375 Z M 299.957031 314.359375 " clip-rule="nonzero"/></clipPath><clipPath id="95ba3623ac"><path d="M 276.816406 314.359375 L 323.09375 314.359375 L 323.09375 360.636719 L 276.816406 360.636719 Z M 276.816406 314.359375 " clip-rule="nonzero"/></clipPath><clipPath id="9d60155c68"><path d="M 299.953125 314.359375 C 287.175781 314.359375 276.816406 324.71875 276.816406 337.496094 C 276.816406 350.277344 287.175781 360.636719 299.953125 360.636719 C 312.730469 360.636719 323.09375 350.277344 323.09375 337.496094 C 323.09375 324.71875 312.730469 314.359375 299.953125 314.359375 Z M 299.953125 314.359375 " clip-rule="nonzero"/></clipPath><clipPath id="91b83a32d6"><path d="M 286.28125 97.632812 L 332.566406 97.632812 L 332.566406 143.917969 L 286.28125 143.917969 Z M 286.28125 97.632812 " clip-rule="nonzero"/></clipPath><clipPath id="c8a290686a"><path d="M 309.425781 97.632812 C 296.644531 97.632812 286.28125 107.992188 286.28125 120.773438 C 286.28125 133.554688 296.644531 143.917969 309.425781 143.917969 C 322.207031 143.917969 332.566406 133.554688 332.566406 120.773438 C 332.566406 107.992188 322.207031 97.632812 309.425781 97.632812 Z M 309.425781 97.632812 " clip-rule="nonzero"/></clipPath><clipPath id="16e10bbe53"><path d="M 286.28125 97.632812 L 332.558594 97.632812 L 332.558594 143.910156 L 286.28125 143.910156 Z M 286.28125 97.632812 " clip-rule="nonzero"/></clipPath><clipPath id="1ae063d561"><path d="M 309.421875 97.632812 C 296.640625 97.632812 286.28125 107.992188 286.28125 120.773438 C 286.28125 133.550781 296.640625 143.910156 309.421875 143.910156 C 322.199219 143.910156 332.558594 133.550781 332.558594 120.773438 C 332.558594 107.992188 322.199219 97.632812 309.421875 97.632812 Z M 309.421875 97.632812 " clip-rule="nonzero"/></clipPath></defs><g clip-path="url(#3765edfc49)"><g clip-path="url(#e1db985652)"><path fill="#545454" d="M 53.808594 99.132812 L 100.09375 99.132812 L 100.09375 145.417969 L 53.808594 145.417969 Z M 53.808594 99.132812 " fill-opacity="1" fill-rule="nonzero"/></g></g><g clip-path="url(#e290ab1357)"><g clip-path="url(#8cc89555d7)"><path stroke-linecap="butt" transform="matrix(0.75, 0, 0, 0.75, 53.809868, 99.132277)" fill="none" stroke-linejoin="miter" d="M 30.852469 0.000714413 C 13.810802 0.000714413 -0.00169922 13.813215 -0.00169922 30.849675 C -0.00169922 47.891343 13.810802 61.703843 30.852469 61.703843 C 47.888929 61.703843 61.70143 47.891343 61.70143 30.849675 C 61.70143 13.813215 47.888929 0.000714413 30.852469 0.000714413 Z M 30.852469 0.000714413 " stroke="#ffffff" stroke-width="8" stroke-opacity="1" stroke-miterlimit="4"/></g></g><g clip-path="url(#4f89654d6a)"><g clip-path="url(#b3e7b19b54)"><path fill="#ffa268" d="M 39.113281 8.9375 L 85.398438 8.9375 L 85.398438 55.222656 L 39.113281 55.222656 Z M 39.113281 8.9375 " fill-opacity="1" fill-rule="nonzero"/></g></g><g clip-path="url(#78e672dc99)"><g clip-path="url(#941dd99253)"><path stroke-linecap="butt" transform="matrix(0.75, 0, 0, 0.75, 39.114791, 8.937082)" fill="none" stroke-linejoin="miter" d="M 30.852156 0.000557689 C 13.810488 0.000557689 -0.00201275 13.813059 -0.00201275 30.849518 C -0.00201275 47.891186 13.810488 61.703687 30.852156 61.703687 C 47.888615 61.703687 61.701116 47.891186 61.701116 30.849518 C 61.701116 13.813059 47.888615 0.000557689 30.852156 0.000557689 Z M 30.852156 0.000557689 " stroke="#ffffff" stroke-width="8" stroke-opacity="1" stroke-miterlimit="4"/></g></g><g clip-path="url(#8fbc990377)"><g clip-path="url(#8cc5cc3041)"><path fill="#737373" d="M 115.527344 61.164062 L 161.8125 61.164062 L 161.8125 107.449219 L 115.527344 107.449219 Z M 115.527344 61.164062 " fill-opacity="1" fill-rule="nonzero"/></g></g><g clip-path="url(#d0915c1a7d)"><g clip-path="url(#567d25c3f2)"><path stroke-linecap="butt" transform="matrix(0.75, 0, 0, 0.75, 115.52909, 61.163288)" fill="none" stroke-linejoin="miter" d="M 30.851841 0.00103269 C 13.810173 0.00103269 -0.00232795 13.813534 -0.00232795 30.849993 C -0.00232795 47.891661 13.810173 61.704162 30.851841 61.704162 C 47.8883 61.704162 61.700801 47.891661 61.700801 30.849993 C 61.700801 13.813534 47.8883 0.00103269 30.851841 0.00103269 Z M 30.851841 0.00103269 " stroke="#ffffff" stroke-width="8" stroke-opacity="1" stroke-miterlimit="4"/></g></g><g clip-path="url(#daa0e5d328)"><g clip-path="url(#23cab258a4)"><path fill="#000000" d="M 137.148438 -7.273438 L 183.433594 -7.273438 L 183.433594 39.007812 L 137.148438 39.007812 Z M 137.148438 -7.273438 " fill-opacity="1" fill-rule="nonzero"/></g></g><g clip-path="url(#d200c41e96)"><g clip-path="url(#b1e3427650)"><path stroke-linecap="butt" transform="matrix(0.75, 0, 0, 0.75, 137.14914, -7.274622)" fill="none" stroke-linejoin="miter" d="M 30.853232 0.00157966 C 13.811564 0.00157966 -0.000937059 13.814081 -0.000937059 30.85054 C -0.000937059 47.892208 13.811564 61.704709 30.853232 61.704709 C 47.889691 61.704709 61.702192 47.892208 61.702192 30.85054 C 61.702192 13.814081 47.889691 0.00157966 30.853232 0.00157966 Z M 30.853232 0.00157966 " stroke="#ffffff" stroke-width="8" stroke-opacity="1" stroke-miterlimit="4"/></g></g><g clip-path="url(#93d8d0bb01)"><g clip-path="url(#9c810ccc00)"><path fill="#545454" d="M 206.355469 24.214844 L 252.640625 24.214844 L 252.640625 70.5 L 206.355469 70.5 Z M 206.355469 24.214844 " fill-opacity="1" fill-rule="nonzero"/></g></g><g clip-path="url(#055dde8808)"><g clip-path="url(#c72e47761f)"><path stroke-linecap="butt" transform="matrix(0.75, 0, 0, 0.75, 206.355709, 24.214602)" fill="none" stroke-linejoin="miter" d="M 30.853849 0.000322853 C 13.812181 0.000322853 -0.000319732 13.812824 -0.000319732 30.849283 C -0.000319732 47.890951 13.812181 61.703452 30.853849 61.703452 C 47.890308 61.703452 61.702809 47.890951 61.702809 30.849283 C 61.702809 13.812824 47.890308 0.000322853 30.853849 0.000322853 Z M 30.853849 0.000322853 " stroke="#ffffff" stroke-width="8" stroke-opacity="1" stroke-miterlimit="4"/></g></g><g clip-path="url(#edd9e569fa)"><g clip-path="url(#3a5fb8c329)"><path fill="#a6a6a6" d="M 277.582031 167.523438 L 323.867188 167.523438 L 323.867188 213.808594 L 277.582031 213.808594 Z M 277.582031 167.523438 " fill-opacity="1" fill-rule="nonzero"/></g></g><g clip-path="url(#4d2b31edc6)"><g clip-path="url(#47d70bd537)"><path stroke-linecap="butt" transform="matrix(0.75, 0, 0, 0.75, 277.581461, 167.522317)" fill="none" stroke-linejoin="miter" d="M 30.84972 0.001494 C 13.813261 0.001494 0.000759704 13.813995 0.000759704 30.850454 C 0.000759704 47.892122 13.813261 61.704623 30.84972 61.704623 C 47.891388 61.704623 61.703889 47.892122 61.703889 30.850454 C 61.703889 13.813995 47.891388 0.001494 30.84972 0.001494 Z M 30.84972 0.001494 " stroke="#ffffff" stroke-width="8" stroke-opacity="1" stroke-miterlimit="4"/></g></g><g clip-path="url(#21dff918da)"><g clip-path="url(#5e48c4b380)"><path fill="#ff914d" d="M 211.550781 114.144531 L 257.835938 114.144531 L 257.835938 160.429688 L 211.550781 160.429688 Z M 211.550781 114.144531 " fill-opacity="1" fill-rule="nonzero"/></g></g><g clip-path="url(#cac94cebf8)"><g clip-path="url(#71ba22f691)"><path stroke-linecap="butt" transform="matrix(0.75, 0, 0, 0.75, 211.552695, 114.145502)" fill="none" stroke-linejoin="miter" d="M 30.851618 -0.00129447 C 13.815158 -0.00129447 -0.00255114 13.811206 -0.00255114 30.852874 C -0.00255114 47.889334 13.815158 61.701835 30.851618 61.701835 C 47.888077 61.701835 61.700578 47.889334 61.700578 30.852874 C 61.700578 13.811206 47.888077 -0.00129447 30.851618 -0.00129447 Z M 30.851618 -0.00129447 " stroke="#ffffff" stroke-width="8" stroke-opacity="1" stroke-miterlimit="4"/></g></g><g clip-path="url(#892a9fea57)"><g clip-path="url(#c43ba9c1c0)"><path fill="#000000" d="M 134.148438 136.539062 L 180.433594 136.539062 L 180.433594 182.820312 L 134.148438 182.820312 Z M 134.148438 136.539062 " fill-opacity="1" fill-rule="nonzero"/></g></g><g clip-path="url(#acbf7bc410)"><g clip-path="url(#60f718b637)"><path stroke-linecap="butt" transform="matrix(0.75, 0, 0, 0.75, 134.14914, 136.537681)" fill="none" stroke-linejoin="miter" d="M 30.853231 0.00184249 C 13.811564 0.00184249 -0.000937321 13.814343 -0.000937321 30.850803 C -0.000937321 47.892471 13.811564 61.704972 30.853231 61.704972 C 47.889691 61.704972 61.702192 47.892471 61.702192 30.850803 C 61.702192 13.814343 47.889691 0.00184249 30.853231 0.00184249 Z M 30.853231 0.00184249 " stroke="#ffffff" stroke-width="8" stroke-opacity="1" stroke-miterlimit="4"/></g></g><g clip-path="url(#d014100c8f)"><g clip-path="url(#fb0ec91a1c)"><path fill="#545454" d="M 207.105469 212.570312 L 253.390625 212.570312 L 253.390625 258.851562 L 207.105469 258.851562 Z M 207.105469 212.570312 " fill-opacity="1" fill-rule="nonzero"/></g></g><g clip-path="url(#a35c7c21cb)"><g clip-path="url(#0782c9f6b2)"><path stroke-linecap="butt" transform="matrix(0.75, 0, 0, 0.75, 207.105709, 212.568912)" fill="none" stroke-linejoin="miter" d="M 30.853849 0.00186675 C 13.812181 0.00186675 -0.000319667 13.814368 -0.000319667 30.850827 C -0.000319667 47.892495 13.812181 61.704996 30.853849 61.704996 C 47.890308 61.704996 61.702809 47.892495 61.702809 30.850827 C 61.702809 13.814368 47.890308 0.00186675 30.853849 0.00186675 Z M 30.853849 0.00186675 " stroke="#ffffff" stroke-width="8" stroke-opacity="1" stroke-miterlimit="4"/></g></g><g clip-path="url(#5501f4feaa)"><g clip-path="url(#46ae713fd8)"><path fill="#000000" d="M 290.78125 241.476562 L 337.066406 241.476562 L 337.066406 287.761719 L 290.78125 287.761719 Z M 290.78125 241.476562 " fill-opacity="1" fill-rule="nonzero"/></g></g><g clip-path="url(#294c1ea33f)"><g clip-path="url(#4c9add0624)"><path stroke-linecap="butt" transform="matrix(0.75, 0, 0, 0.75, 290.78225, 241.476723)" fill="none" stroke-linejoin="miter" d="M 30.852835 -0.000214457 C 13.811167 -0.000214457 -0.00133361 13.812286 -0.00133361 30.853954 C -0.00133361 47.890414 13.811167 61.702915 30.852835 61.702915 C 47.889295 61.702915 61.701795 47.890414 61.701795 30.853954 C 61.701795 13.812286 47.889295 -0.000214457 30.852835 -0.000214457 Z M 30.852835 -0.000214457 " stroke="#ffffff" stroke-width="8" stroke-opacity="1" stroke-miterlimit="4"/></g></g><g clip-path="url(#8340abf53f)"><g clip-path="url(#ea46688ff4)"><path fill="#6f6f6f" d="M 101.46875 201.136719 L 147.617188 201.136719 L 147.617188 247.285156 L 101.46875 247.285156 Z M 101.46875 201.136719 " fill-opacity="1" fill-rule="nonzero"/><path stroke-linecap="butt" transform="matrix(0.75, 0, 0, 0.75, 101.468347, 201.135558)" fill="none" stroke-linejoin="miter" d="M 30.766164 0.00154768 C 13.776579 0.00154768 0.000536751 13.772382 0.000536751 30.767175 C 0.000536751 47.756759 13.776579 61.532802 30.766164 61.532802 C 47.755748 61.532802 61.531791 47.756759 61.531791 30.767175 C 61.531791 13.772382 47.755748 0.00154768 30.766164 0.00154768 Z M 30.766164 0.00154768 " stroke="#ffffff" stroke-width="8" stroke-opacity="1" stroke-miterlimit="4"/></g></g><g clip-path="url(#0fdef11553)"><g clip-path="url(#e7b9bf806c)"><path fill="#ff883f" d="M 204.757812 272.351562 L 251.042969 272.351562 L 251.042969 318.636719 L 204.757812 318.636719 Z M 204.757812 272.351562 " fill-opacity="1" fill-rule="nonzero"/></g></g><g clip-path="url(#ec9c66f21b)"><g clip-path="url(#3427468a1e)"><path stroke-linecap="butt" transform="matrix(0.75, 0, 0, 0.75, 204.756788, 272.353283)" fill="none" stroke-linejoin="miter" d="M 30.850327 -0.00229389 C 13.813867 -0.00229389 0.00136619 13.810207 0.00136619 30.851875 C 0.00136619 47.888334 13.813867 61.700835 30.850327 61.700835 C 47.891994 61.700835 61.704495 47.888334 61.704495 30.851875 C 61.704495 13.810207 47.891994 -0.00229389 30.850327 -0.00229389 Z M 30.850327 -0.00229389 " stroke="#ffffff" stroke-width="8" stroke-opacity="1" stroke-miterlimit="4"/></g></g><g clip-path="url(#a77036d786)"><g clip-path="url(#a06c05d03b)"><path fill="#6f6f6f" d="M 276.816406 314.359375 L 323.097656 314.359375 L 323.097656 360.640625 L 276.816406 360.640625 Z M 276.816406 314.359375 " fill-opacity="1" fill-rule="nonzero"/></g></g><g clip-path="url(#95ba3623ac)"><g clip-path="url(#9d60155c68)"><path stroke-linecap="butt" transform="matrix(0.75, 0, 0, 0.75, 276.814527, 314.357792)" fill="none" stroke-linejoin="miter" d="M 30.851466 0.00211046 C 13.815006 0.00211046 0.0025055 13.814611 0.0025055 30.851071 C 0.0025055 47.892739 13.815006 61.70524 30.851466 61.70524 C 47.887925 61.70524 61.705635 47.892739 61.705635 30.851071 C 61.705635 13.814611 47.887925 0.00211046 30.851466 0.00211046 Z M 30.851466 0.00211046 " stroke="#ffffff" stroke-width="8" stroke-opacity="1" stroke-miterlimit="4"/></g></g><path stroke-linecap="butt" transform="matrix(0.647948, 0.377708, -0.377708, 0.647948, 248.650769, 305.856484)" fill="none" stroke-linejoin="miter" d="M -0.000971964 2.00051 L 49.487493 1.999331 " stroke="#ffffff" stroke-width="4" stroke-opacity="1" stroke-miterlimit="4"/><path stroke-linecap="butt" transform="matrix(0.662116, 0.352282, -0.352282, 0.662116, 321.095316, 347.049587)" fill="none" stroke-linejoin="miter" d="M 0.000589103 2.001471 L 65.384517 1.99799 " stroke="#ffffff" stroke-width="4" stroke-opacity="1" stroke-miterlimit="4"/><path stroke-linecap="butt" transform="matrix(0.188586, 0.725903, -0.725903, 0.188586, 309.444944, 212.317822)" fill="none" stroke-linejoin="miter" d="M -0.00184468 3.997266 L 39.135187 3.999746 " stroke="#ffffff" stroke-width="8" stroke-opacity="1" stroke-miterlimit="4"/><g clip-path="url(#91b83a32d6)"><g clip-path="url(#c8a290686a)"><path fill="#6f6f6f" d="M 286.28125 97.632812 L 332.566406 97.632812 L 332.566406 143.917969 L 286.28125 143.917969 Z M 286.28125 97.632812 " fill-opacity="1" fill-rule="nonzero"/></g></g><g clip-path="url(#16e10bbe53)"><g clip-path="url(#1ae063d561)"><path stroke-linecap="butt" transform="matrix(0.75, 0, 0, 0.75, 286.282251, 97.632966)" fill="none" stroke-linejoin="miter" d="M 30.852835 -0.000204118 C 13.811167 -0.000204118 -0.001334 13.812297 -0.001334 30.853965 C -0.001334 47.890424 13.811167 61.702925 30.852835 61.702925 C 47.889294 61.702925 61.701795 47.890424 61.701795 30.853965 C 61.701795 13.812297 47.889294 -0.000204118 30.852835 -0.000204118 Z M 30.852835 -0.000204118 " stroke="#ffffff" stroke-width="8" stroke-opacity="1" stroke-miterlimit="4"/></g></g><path stroke-linecap="butt" transform="matrix(0.708889, 0.244901, -0.244901, 0.708889, 253.106853, 240.435891)" fill="none" stroke-linejoin="miter" d="M 0.0012518 3.996864 L 56.308007 4.001673 " stroke="#ffffff" stroke-width="8" stroke-opacity="1" stroke-miterlimit="4"/><path stroke-linecap="butt" transform="matrix(0.519275, 0.541159, -0.541159, 0.519275, 175.478489, 174.301777)" fill="none" stroke-linejoin="miter" d="M -0.00121951 4.001328 L 78.787955 3.999832 " stroke="#ffffff" stroke-width="8" stroke-opacity="1" stroke-miterlimit="4"/><path stroke-linecap="butt" transform="matrix(0.714537, 0.227896, -0.227896, 0.714537, 180.661281, 158.96602)" fill="none" stroke-linejoin="miter" d="M -0.0000871935 0.998811 L 135.959719 0.998291 " stroke="#ffffff" stroke-width="2" stroke-opacity="1" stroke-miterlimit="4"/><path stroke-linecap="butt" transform="matrix(0.552341, 0.507365, -0.507365, 0.552341, 247.555095, 61.90958)" fill="none" stroke-linejoin="miter" d="M -0.0000481124 2.002513 L 82.990313 2.00077 " stroke="#ffffff" stroke-width="4" stroke-opacity="1" stroke-miterlimit="4"/><path stroke-linecap="butt" transform="matrix(0.656673, 0.362327, -0.362327, 0.656673, 159.661928, 94.174909)" fill="none" stroke-linejoin="miter" d="M 0.000281149 1.999886 L 84.504539 1.998359 " stroke="#ffffff" stroke-width="4" stroke-opacity="1" stroke-miterlimit="4"/><path stroke-linecap="butt" transform="matrix(-0.225925, 0.715163, -0.715163, -0.225925, 156.172348, 38.84921)" fill="none" stroke-linejoin="miter" d="M -0.000571889 3.999058 L 33.96846 4.000898 " stroke="#ffffff" stroke-width="8" stroke-opacity="1" stroke-miterlimit="4"/><path stroke-linecap="butt" transform="matrix(0.317278, 0.679584, -0.679584, 0.317278, 87.423808, 142.931827)" fill="none" stroke-linejoin="miter" d="M 0.0021359 0.998245 L 88.358776 1.001716 " stroke="#ffffff" stroke-width="2" stroke-opacity="1" stroke-miterlimit="4"/><path stroke-linecap="butt" transform="matrix(0.120604, 0.74024, -0.74024, 0.120604, 68.935217, 54.446773)" fill="none" stroke-linejoin="miter" d="M 0.000313695 4.002215 L 60.121923 3.99814 " stroke="#ffffff" stroke-width="8" stroke-opacity="1" stroke-miterlimit="4"/><path stroke-linecap="butt" transform="matrix(0.554185, 0.50535, -0.50535, 0.554185, -30.080188, 23.664258)" fill="none" stroke-linejoin="miter" d="M -0.000118185 1.000661 L 163.187 0.99754 " stroke="#ffffff" stroke-width="2" stroke-opacity="1" stroke-miterlimit="4"/><path stroke-linecap="butt" transform="matrix(-0.679917, -0.316564, 0.316564, -0.679917, 135.981953, 150.587657)" fill="none" stroke-linejoin="miter" d="M 0.00282392 1.000876 L 56.431945 1.000621 " stroke="#ffffff" stroke-width="2" stroke-opacity="1" stroke-miterlimit="4"/><path stroke-linecap="butt" transform="matrix(0.0432692, 0.748751, -0.748751, 0.0432692, 231.20637, 70.440581)" fill="none" stroke-linejoin="miter" d="M -0.00169848 0.499853 L 58.392492 0.498957 " stroke="#ffffff" stroke-width="1" stroke-opacity="1" stroke-miterlimit="4"/><path stroke-linecap="butt" transform="matrix(0.179869, 0.728112, -0.728112, 0.179869, 144.947294, 106.602077)" fill="none" stroke-linejoin="miter" d="M -0.00103862 1.000337 L 41.792301 0.997288 " stroke="#ffffff" stroke-width="2" stroke-opacity="1" stroke-miterlimit="4"/><path stroke-linecap="butt" transform="matrix(0.619197, 0.423197, -0.423197, 0.619197, 81.787874, 44.520187)" fill="none" stroke-linejoin="miter" d="M -0.000601884 1.002417 L 61.689318 0.999979 " stroke="#ffffff" stroke-width="2" stroke-opacity="1" stroke-miterlimit="4"/><path stroke-linecap="butt" transform="matrix(0.7456, 0.0811242, -0.0811242, 0.7456, 147.564808, 225.960585)" fill="none" stroke-linejoin="miter" d="M 0.00103777 1.001022 L 80.142914 0.999081 " stroke="#ffffff" stroke-width="2" stroke-opacity="1" stroke-miterlimit="4"/><path stroke-linecap="butt" transform="matrix(0.682657, 0.310611, -0.310611, 0.682657, 181.515667, 25.114428)" fill="none" stroke-linejoin="miter" d="M -0.000493048 0.502092 L 39.653471 0.501271 " stroke="#ffffff" stroke-width="1" stroke-opacity="1" stroke-miterlimit="4"/><path stroke-linecap="butt" transform="matrix(0.739951, -0.122364, 0.122364, 0.739951, 84.970209, 27.563037)" fill="none" stroke-linejoin="miter" d="M 0.00117924 1.002493 L 70.767293 1.001221 " stroke="#ffffff" stroke-width="2" stroke-opacity="1" stroke-miterlimit="4"/></svg>